<?xml version="1.0" encoding="utf-8"?>
<svg version="1.1" id="Layer_1" xmlns="http://www.w3.org/2000/svg" xmlns:xlink="http://www.w3.org/1999/xlink" x="0px" y="0px"
	 viewBox="0 0 120 120" style="enable-background:new 0 0 120 120;" xml:space="preserve">
<style type="text/css">
	.st0{fill:#FFFFFF;}
	.st1{fill:#003399;}
</style>
<path id="Shape" class="st0" d="M120,108c0,6.6-5.4,12-12,12H12c-6.6,0-12-5.4-12-12V12C0,5.4,5.4,0,12,0h96c6.6,0,12,5.4,12,12V108
	L120,108z"/>
<path class="st1" d="M71.6,51.6c6.3,0,11.4,5.1,11.4,11.3c0,6.2-5.1,11.3-11.4,11.3c-6.3,0-11.4-5.1-11.4-11.3
	C60.2,56.6,65.3,51.6,71.6,51.6"/>
<path class="st1" d="M58.4,99.7c-22.6,0-40.9-18.1-40.9-40.4c0-19.1,13.4-35,31.4-39.3C38,25.5,30.7,36.5,30.7,49.3
	C30.7,67.3,45.5,82,63.8,82h0.5h16.9L71,99.7H59H58.4z"/>
<path class="st1" d="M62.6,20.2c-15.8,0-28.6,12.7-28.6,28.3c0,13.3,9.3,24.5,21.9,27.5c-7.5-3.8-12.7-11.5-12.7-20.4
	c0-12.6,10.4-22.9,23.2-22.9h0.4h30.5l-7.2-12.4H63H62.6z"/>
<path class="st1" d="M67.4,36.2c-11.1,0-20,8.9-20,19.8c0,9.3,6.6,17.2,15.4,19.2c-5.3-2.6-8.9-8-8.9-14.3c0-8.8,7.3-16,16.2-16h0.2
	h34l-5-8.7H67.7H67.4z"/>
</svg>